<svg xmlns="http://www.w3.org/2000/svg" xmlns:xlink="http://www.w3.org/1999/xlink" viewBox="0 0 381.45 135.26" width="506" height="179"><defs><style>.cls-1{fill:url(#radial-gradient);}.cls-2{fill:#2e3192;}</style><radialGradient id="radial-gradient" cx="208.97" cy="67.63" r="67.63" gradientUnits="userSpaceOnUse"><stop offset="0" stop-color="#009fdf"/><stop offset="0.16" stop-color="#0299db"/><stop offset="0.37" stop-color="#0989d0"/><stop offset="0.61" stop-color="#156ebd"/><stop offset="0.86" stop-color="#2449a3"/><stop offset="1" stop-color="#2e3192"/></radialGradient></defs><title>logo</title><g id="Layer_2" data-name="Layer 2"><g id="Layer_1-2" data-name="Layer 1"><path class="cls-1" d="M197,93.22A13.33,13.33,0,0,0,188.82,113a2.1,2.1,0,0,0,2.32,1,13.32,13.32,0,0,0,8.19-19.77,2.1,2.1,0,0,0-1.8-1,2.07,2.07,0,0,0-.52.07m21.6,1a13.32,13.32,0,0,0,8.19,19.77,2.1,2.1,0,0,0,2.31-1,13.33,13.33,0,0,0-8.19-19.77,2.06,2.06,0,0,0-.51-.07,2.1,2.1,0,0,0-1.8,1M207.74,81.11a11.52,11.52,0,0,0-4.52,9.15A11.39,11.39,0,0,0,204.76,96c1.63,2.82,3.66,5.67,3.44,8.92-.18,2.61-1.66,5-3.37,7A15.62,15.62,0,0,0,201.11,122a15.78,15.78,0,0,0,6.58,12.82,2.19,2.19,0,0,0,2.56,0,15.73,15.73,0,0,0,2.87-23c-1.71-2-3.19-4.36-3.37-7-.22-3.24,1.81-6.1,3.44-8.91a11.41,11.41,0,0,0,1.54-5.74,11.53,11.53,0,0,0-4.52-9.15,2,2,0,0,0-2.46,0M188.9,79.57a11.41,11.41,0,0,0-3,5.14c-.84,3.14-1.42,6.6-3.87,8.74-2,1.72-4.67,2.33-7.31,2.55a15.61,15.61,0,0,0-9.8,4.54,15.77,15.77,0,0,0-4.41,13.72,2.18,2.18,0,0,0,1.81,1.81,15.74,15.74,0,0,0,18.26-14.21c.22-2.64.83-5.34,2.55-7.31,2.14-2.45,5.59-3,8.74-3.87a11.39,11.39,0,0,0,5.14-3A11.51,11.51,0,0,0,200.31,78a2,2,0,0,0-1.74-1.74,11.65,11.65,0,0,0-1.5-.1,11.5,11.5,0,0,0-8.16,3.38m30.48-3.28A2,2,0,0,0,217.64,78a11.53,11.53,0,0,0,3.28,9.67,11.39,11.39,0,0,0,5.14,3c3.14.84,6.6,1.42,8.74,3.87,1.72,2,2.33,4.68,2.55,7.31a15.74,15.74,0,0,0,18.26,14.21,2.18,2.18,0,0,0,1.81-1.81A15.78,15.78,0,0,0,253,100.54a15.61,15.61,0,0,0-9.8-4.54c-2.63-.22-5.34-.83-7.31-2.55-2.45-2.14-3-5.6-3.87-8.74a11.5,11.5,0,0,0-11.13-8.52,11.66,11.66,0,0,0-1.5.1m-48.9.1a13.33,13.33,0,0,0-7.82,9.07,2.09,2.09,0,0,0,1,2.31,13.33,13.33,0,0,0,19.77-8.19,2.11,2.11,0,0,0-1-2.32,13.41,13.41,0,0,0-6.86-1.9,13.25,13.25,0,0,0-5.08,1m65,.88a2.1,2.1,0,0,0-1,2.32,13.32,13.32,0,0,0,19.77,8.19,2.1,2.1,0,0,0,1-2.31,13.32,13.32,0,0,0-19.77-8.19M141.75,66.35a2.19,2.19,0,0,0,0,2.56,15.78,15.78,0,0,0,12.82,6.58,15.62,15.62,0,0,0,10.14-3.72c2-1.71,4.36-3.19,7-3.36,3.24-.22,6.1,1.8,8.92,3.43a11.4,11.4,0,0,0,5.73,1.54,11.54,11.54,0,0,0,9.16-4.52,2,2,0,0,0,0-2.46,11.54,11.54,0,0,0-9.16-4.51,11.4,11.4,0,0,0-5.73,1.54c-2.81,1.63-5.67,3.66-8.92,3.44-2.61-.18-5-1.66-7-3.37a15.73,15.73,0,0,0-23,2.86m111.48-2.86c-2,1.71-4.36,3.19-7,3.37-3.24.22-6.1-1.81-8.92-3.44a11.4,11.4,0,0,0-5.73-1.54,11.53,11.53,0,0,0-9.16,4.51,2,2,0,0,0,0,2.46,11.53,11.53,0,0,0,9.16,4.52,11.39,11.39,0,0,0,5.73-1.54c2.82-1.63,5.68-3.66,8.92-3.43,2.61.18,5,1.65,7,3.36a15.62,15.62,0,0,0,10.14,3.72,15.78,15.78,0,0,0,12.82-6.58,2.19,2.19,0,0,0,0-2.56,15.74,15.74,0,0,0-23-2.86m-89.62-16a2.1,2.1,0,0,0-1,2.31A13.32,13.32,0,0,0,182.42,58a2.1,2.1,0,0,0,1-2.31,13.32,13.32,0,0,0-19.77-8.19m78.77-.87a13.3,13.3,0,0,0-7.82,9.06,2.09,2.09,0,0,0,1,2.31,13.32,13.32,0,0,0,19.77-8.19,2.1,2.1,0,0,0-1-2.31,13.41,13.41,0,0,0-6.86-1.9,13.24,13.24,0,0,0-5.09,1M188.82,22.27A13.33,13.33,0,0,0,197,42a2.1,2.1,0,0,0,2.32-1,13.33,13.33,0,0,0-8.19-19.77,2.1,2.1,0,0,0-2.32,1m38-1a13.33,13.33,0,0,0-8.19,19.77,2.1,2.1,0,0,0,2.31,1,13.33,13.33,0,0,0,8.19-19.77,2.1,2.1,0,0,0-2.31-1M162.34,19.2A2.19,2.19,0,0,0,160.53,21a15.78,15.78,0,0,0,4.41,13.72,15.61,15.61,0,0,0,9.8,4.54c2.64.22,5.34.83,7.31,2.55,2.45,2.14,3,5.59,3.87,8.74A11.51,11.51,0,0,0,198.57,59a2,2,0,0,0,1.74-1.74,11.51,11.51,0,0,0-8.43-12.63c-3.14-.84-6.6-1.42-8.74-3.88-1.72-2-2.33-4.67-2.55-7.31A15.72,15.72,0,0,0,164.89,19a16.06,16.06,0,0,0-2.55.2m79.54,4.42a15.63,15.63,0,0,0-4.54,9.8c-.22,2.64-.83,5.34-2.55,7.31-2.14,2.45-5.6,3-8.74,3.88a11.41,11.41,0,0,0-5.14,3,11.52,11.52,0,0,0-3.28,9.66A2,2,0,0,0,219.38,59,11.51,11.51,0,0,0,232,50.55c.84-3.14,1.42-6.6,3.87-8.74,2-1.72,4.67-2.33,7.31-2.55a15.6,15.6,0,0,0,9.8-4.54A15.79,15.79,0,0,0,257.41,21a2.19,2.19,0,0,0-1.81-1.81A15.91,15.91,0,0,0,253,19a15.74,15.74,0,0,0-11.17,4.62M207.69.41a15.73,15.73,0,0,0-2.86,23c1.71,2,3.19,4.36,3.37,7,.22,3.24-1.81,6.1-3.44,8.91A11.38,11.38,0,0,0,203.22,45a11.51,11.51,0,0,0,4.52,9.15,2,2,0,0,0,2.46,0,11.5,11.5,0,0,0,3-14.89c-1.63-2.81-3.66-5.67-3.44-8.91.18-2.61,1.66-5,3.37-7a15.74,15.74,0,0,0-2.87-23,2.19,2.19,0,0,0-2.56,0"/><path class="cls-2" d="M18.81,81.67a.82.82,0,0,1-.33.65,7.46,7.46,0,0,1-2.63.47q-2.31.2-4.35.2-6.16,0-8.83-2.51T0,73V51.64A.81.81,0,0,1,.27,51a.88.88,0,0,1,.63-.26H9.23a.86.86,0,0,1,.86.86V73a1.49,1.49,0,0,0,.3,1.08,1.61,1.61,0,0,0,1.12.29H18a.86.86,0,0,1,.86.86ZM47.27,64.82q0-7.08-3.57-10.76t-10-3.68q-6.45,0-10,3.67T20.08,64.82v3.72q0,7.1,3.58,10.77t10,3.68q6.45,0,10-3.68t3.57-10.77ZM37.06,68.54a8.81,8.81,0,0,1-.76,4.26,2.79,2.79,0,0,1-2.62,1.29,2.82,2.82,0,0,1-2.6-1.26,8.6,8.6,0,0,1-.78-4.29V64.82a8.83,8.83,0,0,1,.76-4.26,2.79,2.79,0,0,1,2.62-1.29,2.82,2.82,0,0,1,2.6,1.26,8.6,8.6,0,0,1,.78,4.29v3.72m35.1-16.89a.81.81,0,0,0-.27-.6.88.88,0,0,0-.63-.26H49.4a.86.86,0,0,0-.86.86v6.51a.84.84,0,0,0,.25.6.81.81,0,0,0,.61.26h6v22.7a.86.86,0,0,0,.86.86h8.33a.85.85,0,0,0,.86-.86V59h5.83a.88.88,0,0,0,.63-.26.81.81,0,0,0,.27-.6Zm30.65,0a.81.81,0,0,0-.27-.6.88.88,0,0,0-.62-.26H93.58a.86.86,0,0,0-.85.86V70.33a5.48,5.48,0,0,1-.7,3.13,4.27,4.27,0,0,1-5.45,0,5.48,5.48,0,0,1-.7-3.13V51.64a.86.86,0,0,0-.86-.86H76.69a.88.88,0,0,0-.63.26.81.81,0,0,0-.27.6V70.33q0,6.29,3.09,9.47T89.3,83q7.33,0,10.42-3.18t3.09-9.47Zm26,8a.7.7,0,0,0,.55-.25.89.89,0,0,0,.22-.6V52.42c0-.33-.25-.61-.74-.82a21.44,21.44,0,0,0-4-.77,47.88,47.88,0,0,0-6.45-.45q-11.46,0-11.46,8.68A9.44,9.44,0,0,0,112,68l5,2.88a17.93,17.93,0,0,1,2.37,1.51.91.91,0,0,1,.26.64q0,1.33-1.59,1.34a83.94,83.94,0,0,1-9.19-.73h-.08a.77.77,0,0,0-.56.26.84.84,0,0,0-.25.6v6.37a.84.84,0,0,0,.53.73,17.2,17.2,0,0,0,3.34.85A32.2,32.2,0,0,0,118,83q5.95,0,9.24-2.88a9.31,9.31,0,0,0,3.29-7.33,9.67,9.67,0,0,0-.62-3.54,8.12,8.12,0,0,0-1.85-2.81,12.21,12.21,0,0,0-3-2.15L119,61.06a6.5,6.5,0,0,1-1.28-.79.81.81,0,0,1-.28-.59c0-.44.3-.67.9-.67q3.59,0,10.38.63ZM304.43,81.5q0-.69-.81-.69h-9.75q-2.07,0-2.68-.76a3.55,3.55,0,0,1-.62-2.27V51.6a.86.86,0,0,0-.21-.57.67.67,0,0,0-.52-.24h-.42a.66.66,0,0,0-.52.24.84.84,0,0,0-.21.57V77.78a4.76,4.76,0,0,0,1.23,3.61,5.59,5.59,0,0,0,3.95,1.17h9.75q.81,0,.81-.73ZM328.86,64q0-6.58-2.84-10t-8.1-3.44A9.91,9.91,0,0,0,309.83,54Q307,57.47,307,64v5.3q0,6.6,2.85,10a9.92,9.92,0,0,0,8.09,3.44,10.16,10.16,0,0,0,8-3.31q2.94-3.31,2.94-10.16ZM327,69.35Q327,81,317.92,81t-9.06-11.67V64q0-11.67,9.06-11.67T327,64v5.3m23,1.21,3,9.83q.58,1.88.67,2a.68.68,0,0,0,.56.29h.5q.69,0,.69-.65a1.33,1.33,0,0,0-.08-.42l-8.77-29a2.62,2.62,0,0,0-2.74-2,2.66,2.66,0,0,0-2.78,2.09l-8.77,29a1.38,1.38,0,0,0,0,.38q0,.69.65.69h.54a.62.62,0,0,0,.4-.17.85.85,0,0,0,.24-.27q0-.1,1.36-4.43l2.19-7.27Zm-11.82-1.9,4.72-15.55a1,1,0,0,1,1-.81,1,1,0,0,1,1,.85l4.65,15.51ZM381.45,51.6c0-.54-.24-.82-.71-.82h-.52c-.46,0-.69.27-.69.82v29c0,.25-.07.38-.21.38s-.24-.1-.33-.29L364.61,51.91a2.12,2.12,0,0,0-.92-1.12,2.77,2.77,0,0,0-1.13-.22,2,2,0,0,0-2.09,2.09V81.75a.84.84,0,0,0,.21.57.66.66,0,0,0,.52.24h.42a.66.66,0,0,0,.52-.24.84.84,0,0,0,.21-.57V52.67c0-.2.07-.29.21-.29s.24.1.36.29l14.4,28.88a3.06,3.06,0,0,0,.64.88,2.22,2.22,0,0,0,1.53.4h0a1.79,1.79,0,0,0,1.38-.6,2.26,2.26,0,0,0,.54-1.58Z"/></g></g></svg>