<svg width="50" height="72" viewBox="0 0 50 72" fill="none" xmlns="http://www.w3.org/2000/svg">
<path d="M25 0C11.19 0 0 10.0368 0 22.469C0 43.9655 25 72 25 72C25 72 50 43.961 50 22.469C50 10.0413 38.81 0 25 0ZM25 34.9013C21.4196 34.9013 17.9858 33.6204 15.4541 31.3404C12.9223 29.0604 11.5 25.9681 11.5 22.7437C11.5 19.5193 12.9223 16.427 15.4541 14.147C17.9858 11.867 21.4196 10.5861 25 10.5861C28.5804 10.5861 32.0142 11.867 34.5459 14.147C37.0777 16.427 38.5 19.5193 38.5 22.7437C38.5 25.9681 37.0777 29.0604 34.5459 31.3404C32.0142 33.6204 28.5804 34.9013 25 34.9013Z" fill="#249DD3"/>
</svg>
